<?xml version="1.0" encoding="utf-8"?>
<!-- Generator: Adobe Illustrator 18.1.1, SVG Export Plug-In . SVG Version: 6.00 Build 0)  -->
<svg version="1.1" id="Layer_1" xmlns="http://www.w3.org/2000/svg" xmlns:xlink="http://www.w3.org/1999/xlink" x="0px" y="0px"
	 viewBox="0 0 6008.8 4034.2" enable-background="new 0 0 6008.8 4034.2" xml:space="preserve">
<g>
	<defs>
		<rect id="SVGID_1_" x="0" width="6008.8" height="4034.2"/>
	</defs>
	<clipPath id="SVGID_2_">
		<use xlink:href="#SVGID_1_"  overflow="visible"/>
	</clipPath>
	<g clip-path="url(#SVGID_2_)">
		<circle fill="#412235" cx="2999.9" cy="1347.5" r="4168"/>
		<circle opacity="0.9695" fill="#442A3B" cx="2999.9" cy="1345.4" r="3968.7"/>
		<circle opacity="0.9389" fill="#483342" cx="2999.9" cy="1343.3" r="3769.5"/>
		<circle opacity="0.9084" fill="#4B3B48" cx="2999.9" cy="1341.1" r="3570.3"/>
		<circle opacity="0.8779" fill="#4E434E" cx="2999.9" cy="1339" r="3371.1"/>
		<circle opacity="0.8474" fill="#524B54" cx="2999.9" cy="1336.9" r="3171.9"/>
		<circle opacity="0.8168" fill="#55545B" cx="2999.9" cy="1334.8" r="2972.7"/>
		<circle opacity="0.7863" fill="#595C61" cx="2999.9" cy="1332.7" r="2773.5"/>
		<circle opacity="0.7558" fill="#5C6467" cx="2999.9" cy="1330.6" r="2574.3"/>
		<circle opacity="0.7253" fill="#5F6C6D" cx="2999.9" cy="1328.5" r="2375.1"/>
		<circle opacity="0.6947" fill="#637574" cx="2999.9" cy="1326.4" r="2175.9"/>
		<circle opacity="0.6642" fill="#667D7A" cx="2999.9" cy="1324.3" r="1976.7"/>
		<circle opacity="0.6337" fill="#698580" cx="2999.9" cy="1322.2" r="1777.5"/>
		<circle opacity="0.6032" fill="#6D8D86" cx="2999.9" cy="1320.1" r="1578.3"/>
		<circle opacity="0.5726" fill="#70968D" cx="2999.9" cy="1318" r="1379"/>
		<circle opacity="0.5421" fill="#749E93" cx="2999.9" cy="1315.9" r="1179.8"/>
		<circle opacity="0.5116" fill="#77A699" cx="2999.9" cy="1313.8" r="980.6"/>
		<circle opacity="0.4811" fill="#7AAE9F" cx="2999.9" cy="1311.7" r="781.4"/>
		<circle opacity="0.4505" fill="#7EB7A6" cx="2999.9" cy="1309.6" r="582.2"/>
		<circle opacity="0.42" fill="#81BFAC" cx="2999.9" cy="1307.5" r="383"/>
	</g>
</g>
<polygon opacity="0.6" fill="#81BFAC" stroke="#E1D8B5" stroke-width="3" stroke-miterlimit="10" points="5998.3,4027.6 0,4027.6 
	3041,2805 "/>
</svg>
